<mxfile host="Electron" agent="Mozilla/5.0 (Windows NT 10.0; Win64; x64) AppleWebKit/537.36 (KHTML, like Gecko) draw.io/24.7.17 Chrome/128.0.6613.36 Electron/32.0.1 Safari/537.36" version="24.7.17">
  <diagram name="Page-1" id="Jev7eovwESba6rQnz0fX">
    <mxGraphModel dx="1500" dy="899" grid="0" gridSize="10" guides="1" tooltips="1" connect="1" arrows="1" fold="1" page="1" pageScale="1" pageWidth="850" pageHeight="1100" math="0" shadow="0">
      <root>
        <mxCell id="0" />
        <mxCell id="1" parent="0" />
        <mxCell id="SjHFO_GWArhu_ULlbVyG-24" style="edgeStyle=orthogonalEdgeStyle;rounded=0;orthogonalLoop=1;jettySize=auto;html=1;exitX=1;exitY=1;exitDx=0;exitDy=0;entryX=0;entryY=0.75;entryDx=0;entryDy=0;" edge="1" parent="1" target="SjHFO_GWArhu_ULlbVyG-3">
          <mxGeometry relative="1" as="geometry">
            <mxPoint x="257.25259210502827" y="65.62716008752363" as="sourcePoint" />
          </mxGeometry>
        </mxCell>
        <mxCell id="SjHFO_GWArhu_ULlbVyG-16" style="edgeStyle=orthogonalEdgeStyle;rounded=0;orthogonalLoop=1;jettySize=auto;html=1;exitX=0.5;exitY=1;exitDx=0;exitDy=0;" edge="1" parent="1" source="SjHFO_GWArhu_ULlbVyG-3" target="SjHFO_GWArhu_ULlbVyG-6">
          <mxGeometry relative="1" as="geometry" />
        </mxCell>
        <mxCell id="SjHFO_GWArhu_ULlbVyG-3" value="&lt;div&gt;create product&lt;/div&gt;&lt;div&gt;&lt;br&gt;&lt;/div&gt;" style="rounded=1;whiteSpace=wrap;html=1;" vertex="1" parent="1">
          <mxGeometry x="342" y="35" width="120" height="46" as="geometry" />
        </mxCell>
        <mxCell id="SjHFO_GWArhu_ULlbVyG-4" value="" style="endArrow=none;html=1;rounded=0;exitX=0;exitY=0.5;exitDx=0;exitDy=0;entryX=1;entryY=0.5;entryDx=0;entryDy=0;" edge="1" parent="1" source="SjHFO_GWArhu_ULlbVyG-3" target="SjHFO_GWArhu_ULlbVyG-3">
          <mxGeometry width="50" height="50" relative="1" as="geometry">
            <mxPoint x="412" y="102" as="sourcePoint" />
            <mxPoint x="462" y="52" as="targetPoint" />
          </mxGeometry>
        </mxCell>
        <mxCell id="SjHFO_GWArhu_ULlbVyG-17" style="edgeStyle=orthogonalEdgeStyle;rounded=0;orthogonalLoop=1;jettySize=auto;html=1;exitX=0.5;exitY=1;exitDx=0;exitDy=0;entryX=0.5;entryY=0;entryDx=0;entryDy=0;" edge="1" parent="1" source="SjHFO_GWArhu_ULlbVyG-6" target="SjHFO_GWArhu_ULlbVyG-8">
          <mxGeometry relative="1" as="geometry" />
        </mxCell>
        <mxCell id="SjHFO_GWArhu_ULlbVyG-6" value="&lt;div&gt;product created&lt;/div&gt;&lt;div&gt;&lt;br&gt;&lt;/div&gt;" style="rounded=1;whiteSpace=wrap;html=1;" vertex="1" parent="1">
          <mxGeometry x="339" y="131" width="120" height="46" as="geometry" />
        </mxCell>
        <mxCell id="SjHFO_GWArhu_ULlbVyG-7" value="" style="endArrow=none;html=1;rounded=0;exitX=0;exitY=0.5;exitDx=0;exitDy=0;entryX=1;entryY=0.5;entryDx=0;entryDy=0;" edge="1" parent="1" source="SjHFO_GWArhu_ULlbVyG-6" target="SjHFO_GWArhu_ULlbVyG-6">
          <mxGeometry width="50" height="50" relative="1" as="geometry">
            <mxPoint x="409" y="198" as="sourcePoint" />
            <mxPoint x="459" y="148" as="targetPoint" />
          </mxGeometry>
        </mxCell>
        <mxCell id="SjHFO_GWArhu_ULlbVyG-19" style="edgeStyle=orthogonalEdgeStyle;rounded=0;orthogonalLoop=1;jettySize=auto;html=1;exitX=0.5;exitY=1;exitDx=0;exitDy=0;" edge="1" parent="1" source="SjHFO_GWArhu_ULlbVyG-8" target="SjHFO_GWArhu_ULlbVyG-12">
          <mxGeometry relative="1" as="geometry" />
        </mxCell>
        <mxCell id="SjHFO_GWArhu_ULlbVyG-8" value="&lt;div&gt;get details&lt;/div&gt;&lt;div&gt;&lt;span style=&quot;color: rgba(0, 0, 0, 0); font-family: monospace; font-size: 0px; text-align: start; text-wrap: nowrap;&quot;&gt;%3CmxGraphModel%3E%3Croot%3E%3CmxCell%20id%3D%220%22%2F%3E%3CmxCell%20id%3D%221%22%20parent%3D%220%22%2F%3E%3CmxCell%20id%3D%222%22%20value%3D%22%26lt%3Bdiv%26gt%3Bcreate%20product%26lt%3B%2Fdiv%26gt%3B%26lt%3Bdiv%26gt%3B%26lt%3Bbr%26gt%3B%26lt%3B%2Fdiv%26gt%3B%22%20style%3D%22rounded%3D1%3BwhiteSpace%3Dwrap%3Bhtml%3D1%3B%22%20vertex%3D%221%22%20parent%3D%221%22%3E%3CmxGeometry%20x%3D%22326%22%20y%3D%22176%22%20width%3D%22120%22%20height%3D%2246%22%20as%3D%22geometry%22%2F%3E%3C%2FmxCell%3E%3CmxCell%20id%3D%223%22%20value%3D%22%22%20style%3D%22endArrow%3Dnone%3Bhtml%3D1%3Brounded%3D0%3BexitX%3D0%3BexitY%3D0.5%3BexitDx%3D0%3BexitDy%3D0%3BentryX%3D1%3BentryY%3D0.5%3BentryDx%3D0%3BentryDy%3D0%3B%22%20edge%3D%221%22%20source%3D%222%22%20target%3D%222%22%20parent%3D%221%22%3E%3CmxGeometry%20width%3D%2250%22%20height%3D%2250%22%20relative%3D%221%22%20as%3D%22geometry%22%3E%3CmxPoint%20x%3D%22396%22%20y%3D%22243%22%20as%3D%22sourcePoint%22%2F%3E%3CmxPoint%20x%3D%22446%22%20y%3D%22193%22%20as%3D%22targetPoint%22%2F%3E%3C%2FmxGeometry%3E%3C%2FmxCell%3E%3C%2Froot%3E%3C%2FmxGraphModel%3E&lt;/span&gt;&lt;br&gt;&lt;/div&gt;" style="rounded=1;whiteSpace=wrap;html=1;" vertex="1" parent="1">
          <mxGeometry x="245" y="219" width="120" height="46" as="geometry" />
        </mxCell>
        <mxCell id="SjHFO_GWArhu_ULlbVyG-9" value="" style="endArrow=none;html=1;rounded=0;exitX=0;exitY=0.5;exitDx=0;exitDy=0;entryX=1;entryY=0.5;entryDx=0;entryDy=0;" edge="1" parent="1" source="SjHFO_GWArhu_ULlbVyG-8" target="SjHFO_GWArhu_ULlbVyG-8">
          <mxGeometry width="50" height="50" relative="1" as="geometry">
            <mxPoint x="409" y="294" as="sourcePoint" />
            <mxPoint x="459" y="244" as="targetPoint" />
          </mxGeometry>
        </mxCell>
        <mxCell id="SjHFO_GWArhu_ULlbVyG-20" style="edgeStyle=orthogonalEdgeStyle;rounded=0;orthogonalLoop=1;jettySize=auto;html=1;exitX=0.5;exitY=1;exitDx=0;exitDy=0;entryX=0.5;entryY=0;entryDx=0;entryDy=0;" edge="1" parent="1" source="SjHFO_GWArhu_ULlbVyG-10" target="SjHFO_GWArhu_ULlbVyG-14">
          <mxGeometry relative="1" as="geometry" />
        </mxCell>
        <mxCell id="SjHFO_GWArhu_ULlbVyG-10" value="&lt;div&gt;update stock&lt;/div&gt;&lt;div&gt;&lt;br&gt;&lt;/div&gt;" style="rounded=1;whiteSpace=wrap;html=1;" vertex="1" parent="1">
          <mxGeometry x="428" y="219" width="120" height="46" as="geometry" />
        </mxCell>
        <mxCell id="SjHFO_GWArhu_ULlbVyG-11" value="" style="endArrow=none;html=1;rounded=0;exitX=0;exitY=0.5;exitDx=0;exitDy=0;entryX=1;entryY=0.5;entryDx=0;entryDy=0;" edge="1" parent="1" source="SjHFO_GWArhu_ULlbVyG-10" target="SjHFO_GWArhu_ULlbVyG-10">
          <mxGeometry width="50" height="50" relative="1" as="geometry">
            <mxPoint x="522" y="248" as="sourcePoint" />
            <mxPoint x="572" y="198" as="targetPoint" />
          </mxGeometry>
        </mxCell>
        <mxCell id="SjHFO_GWArhu_ULlbVyG-22" style="edgeStyle=orthogonalEdgeStyle;rounded=0;orthogonalLoop=1;jettySize=auto;html=1;exitX=0.5;exitY=1;exitDx=0;exitDy=0;" edge="1" parent="1" source="SjHFO_GWArhu_ULlbVyG-12" target="SjHFO_GWArhu_ULlbVyG-21">
          <mxGeometry relative="1" as="geometry" />
        </mxCell>
        <mxCell id="SjHFO_GWArhu_ULlbVyG-12" value="&lt;div&gt;display details&lt;/div&gt;&lt;div&gt;&lt;br&gt;&lt;/div&gt;" style="rounded=1;whiteSpace=wrap;html=1;" vertex="1" parent="1">
          <mxGeometry x="248" y="288" width="120" height="46" as="geometry" />
        </mxCell>
        <mxCell id="SjHFO_GWArhu_ULlbVyG-13" value="" style="endArrow=none;html=1;rounded=0;exitX=0;exitY=0.5;exitDx=0;exitDy=0;entryX=1;entryY=0.5;entryDx=0;entryDy=0;" edge="1" parent="1" source="SjHFO_GWArhu_ULlbVyG-12" target="SjHFO_GWArhu_ULlbVyG-12">
          <mxGeometry width="50" height="50" relative="1" as="geometry">
            <mxPoint x="452" y="142" as="sourcePoint" />
            <mxPoint x="502" y="92" as="targetPoint" />
          </mxGeometry>
        </mxCell>
        <mxCell id="SjHFO_GWArhu_ULlbVyG-23" style="edgeStyle=orthogonalEdgeStyle;rounded=0;orthogonalLoop=1;jettySize=auto;html=1;exitX=0.5;exitY=1;exitDx=0;exitDy=0;entryX=1;entryY=0;entryDx=0;entryDy=0;" edge="1" parent="1" source="SjHFO_GWArhu_ULlbVyG-14" target="SjHFO_GWArhu_ULlbVyG-21">
          <mxGeometry relative="1" as="geometry" />
        </mxCell>
        <mxCell id="SjHFO_GWArhu_ULlbVyG-14" value="&lt;div&gt;stock updated&lt;/div&gt;&lt;div&gt;&lt;br&gt;&lt;/div&gt;" style="rounded=1;whiteSpace=wrap;html=1;" vertex="1" parent="1">
          <mxGeometry x="428" y="293" width="120" height="46" as="geometry" />
        </mxCell>
        <mxCell id="SjHFO_GWArhu_ULlbVyG-15" value="" style="endArrow=none;html=1;rounded=0;exitX=0;exitY=0.5;exitDx=0;exitDy=0;entryX=1;entryY=0.5;entryDx=0;entryDy=0;" edge="1" parent="1" source="SjHFO_GWArhu_ULlbVyG-14" target="SjHFO_GWArhu_ULlbVyG-14">
          <mxGeometry width="50" height="50" relative="1" as="geometry">
            <mxPoint x="542" y="26" as="sourcePoint" />
            <mxPoint x="592" y="-24" as="targetPoint" />
          </mxGeometry>
        </mxCell>
        <mxCell id="SjHFO_GWArhu_ULlbVyG-18" style="edgeStyle=orthogonalEdgeStyle;rounded=0;orthogonalLoop=1;jettySize=auto;html=1;exitX=0.75;exitY=1;exitDx=0;exitDy=0;entryX=0.589;entryY=0.051;entryDx=0;entryDy=0;entryPerimeter=0;" edge="1" parent="1" source="SjHFO_GWArhu_ULlbVyG-6" target="SjHFO_GWArhu_ULlbVyG-10">
          <mxGeometry relative="1" as="geometry" />
        </mxCell>
        <mxCell id="SjHFO_GWArhu_ULlbVyG-21" value="" style="ellipse;html=1;shape=endState;fillColor=strokeColor;" vertex="1" parent="1">
          <mxGeometry x="372" y="420" width="30" height="30" as="geometry" />
        </mxCell>
        <mxCell id="SjHFO_GWArhu_ULlbVyG-53" style="edgeStyle=orthogonalEdgeStyle;rounded=0;orthogonalLoop=1;jettySize=auto;html=1;entryX=0;entryY=0.5;entryDx=0;entryDy=0;" edge="1" parent="1" source="SjHFO_GWArhu_ULlbVyG-30" target="SjHFO_GWArhu_ULlbVyG-32">
          <mxGeometry relative="1" as="geometry" />
        </mxCell>
        <mxCell id="SjHFO_GWArhu_ULlbVyG-30" value="&lt;div&gt;Browsing Products&lt;br&gt;&lt;/div&gt;&lt;div&gt;&lt;br&gt;&lt;/div&gt;" style="rounded=1;whiteSpace=wrap;html=1;" vertex="1" parent="1">
          <mxGeometry x="192" y="598" width="120" height="46" as="geometry" />
        </mxCell>
        <mxCell id="SjHFO_GWArhu_ULlbVyG-31" value="" style="endArrow=none;html=1;rounded=0;exitX=0;exitY=0.5;exitDx=0;exitDy=0;entryX=1;entryY=0.5;entryDx=0;entryDy=0;" edge="1" parent="1" source="SjHFO_GWArhu_ULlbVyG-30" target="SjHFO_GWArhu_ULlbVyG-30">
          <mxGeometry width="50" height="50" relative="1" as="geometry">
            <mxPoint x="198" y="653" as="sourcePoint" />
            <mxPoint x="248" y="603" as="targetPoint" />
          </mxGeometry>
        </mxCell>
        <mxCell id="SjHFO_GWArhu_ULlbVyG-32" value="&lt;div&gt;Adding to Cart&lt;br&gt;&lt;/div&gt;&lt;div&gt;&lt;br&gt;&lt;/div&gt;" style="rounded=1;whiteSpace=wrap;html=1;" vertex="1" parent="1">
          <mxGeometry x="387" y="602" width="120" height="39" as="geometry" />
        </mxCell>
        <mxCell id="SjHFO_GWArhu_ULlbVyG-33" value="" style="endArrow=none;html=1;rounded=0;exitX=0;exitY=0.5;exitDx=0;exitDy=0;entryX=1;entryY=0.5;entryDx=0;entryDy=0;" edge="1" parent="1" source="SjHFO_GWArhu_ULlbVyG-32" target="SjHFO_GWArhu_ULlbVyG-32">
          <mxGeometry width="50" height="50" relative="1" as="geometry">
            <mxPoint x="227" y="667" as="sourcePoint" />
            <mxPoint x="277" y="617" as="targetPoint" />
          </mxGeometry>
        </mxCell>
        <mxCell id="SjHFO_GWArhu_ULlbVyG-55" style="edgeStyle=orthogonalEdgeStyle;rounded=0;orthogonalLoop=1;jettySize=auto;html=1;" edge="1" parent="1" source="SjHFO_GWArhu_ULlbVyG-34" target="SjHFO_GWArhu_ULlbVyG-44">
          <mxGeometry relative="1" as="geometry" />
        </mxCell>
        <mxCell id="SjHFO_GWArhu_ULlbVyG-34" value="&lt;div&gt;Viewing Cart&lt;br&gt;&lt;/div&gt;&lt;div&gt;&lt;br&gt;&lt;/div&gt;" style="rounded=1;whiteSpace=wrap;html=1;" vertex="1" parent="1">
          <mxGeometry x="385" y="697" width="120" height="46" as="geometry" />
        </mxCell>
        <mxCell id="SjHFO_GWArhu_ULlbVyG-35" value="" style="endArrow=none;html=1;rounded=0;exitX=0;exitY=0.5;exitDx=0;exitDy=0;entryX=1;entryY=0.5;entryDx=0;entryDy=0;" edge="1" parent="1" source="SjHFO_GWArhu_ULlbVyG-34" target="SjHFO_GWArhu_ULlbVyG-34">
          <mxGeometry width="50" height="50" relative="1" as="geometry">
            <mxPoint x="486" y="524" as="sourcePoint" />
            <mxPoint x="536" y="474" as="targetPoint" />
          </mxGeometry>
        </mxCell>
        <mxCell id="SjHFO_GWArhu_ULlbVyG-57" style="edgeStyle=orthogonalEdgeStyle;rounded=0;orthogonalLoop=1;jettySize=auto;html=1;" edge="1" parent="1" source="SjHFO_GWArhu_ULlbVyG-44">
          <mxGeometry relative="1" as="geometry">
            <mxPoint x="429.4210783305921" y="830" as="targetPoint" />
          </mxGeometry>
        </mxCell>
        <mxCell id="SjHFO_GWArhu_ULlbVyG-58" style="edgeStyle=orthogonalEdgeStyle;rounded=0;orthogonalLoop=1;jettySize=auto;html=1;entryX=0.5;entryY=0;entryDx=0;entryDy=0;" edge="1" parent="1" source="SjHFO_GWArhu_ULlbVyG-44" target="SjHFO_GWArhu_ULlbVyG-49">
          <mxGeometry relative="1" as="geometry" />
        </mxCell>
        <mxCell id="SjHFO_GWArhu_ULlbVyG-44" value="&lt;div&gt;view product details&lt;/div&gt;&lt;div&gt;&lt;br&gt;&lt;/div&gt;" style="rounded=1;whiteSpace=wrap;html=1;" vertex="1" parent="1">
          <mxGeometry x="245" y="807" width="120" height="46" as="geometry" />
        </mxCell>
        <mxCell id="SjHFO_GWArhu_ULlbVyG-45" value="" style="endArrow=none;html=1;rounded=0;exitX=0;exitY=0.5;exitDx=0;exitDy=0;entryX=1;entryY=0.5;entryDx=0;entryDy=0;" edge="1" parent="1" source="SjHFO_GWArhu_ULlbVyG-44" target="SjHFO_GWArhu_ULlbVyG-44">
          <mxGeometry width="50" height="50" relative="1" as="geometry">
            <mxPoint x="248" y="944" as="sourcePoint" />
            <mxPoint x="298" y="894" as="targetPoint" />
          </mxGeometry>
        </mxCell>
        <mxCell id="SjHFO_GWArhu_ULlbVyG-59" style="edgeStyle=orthogonalEdgeStyle;rounded=0;orthogonalLoop=1;jettySize=auto;html=1;entryX=0.5;entryY=0;entryDx=0;entryDy=0;" edge="1" parent="1" source="SjHFO_GWArhu_ULlbVyG-46" target="SjHFO_GWArhu_ULlbVyG-51">
          <mxGeometry relative="1" as="geometry" />
        </mxCell>
        <mxCell id="SjHFO_GWArhu_ULlbVyG-46" value="&lt;div&gt;order placed&lt;/div&gt;&lt;div&gt;&lt;br&gt;&lt;/div&gt;" style="rounded=1;whiteSpace=wrap;html=1;" vertex="1" parent="1">
          <mxGeometry x="428" y="807" width="120" height="46" as="geometry" />
        </mxCell>
        <mxCell id="SjHFO_GWArhu_ULlbVyG-47" value="" style="endArrow=none;html=1;rounded=0;exitX=0;exitY=0.5;exitDx=0;exitDy=0;entryX=1;entryY=0.5;entryDx=0;entryDy=0;" edge="1" parent="1" source="SjHFO_GWArhu_ULlbVyG-46" target="SjHFO_GWArhu_ULlbVyG-46">
          <mxGeometry width="50" height="50" relative="1" as="geometry">
            <mxPoint x="258" y="954" as="sourcePoint" />
            <mxPoint x="308" y="904" as="targetPoint" />
          </mxGeometry>
        </mxCell>
        <mxCell id="SjHFO_GWArhu_ULlbVyG-60" style="edgeStyle=orthogonalEdgeStyle;rounded=0;orthogonalLoop=1;jettySize=auto;html=1;" edge="1" parent="1" source="SjHFO_GWArhu_ULlbVyG-49">
          <mxGeometry relative="1" as="geometry">
            <mxPoint x="428.5789537931744" y="928" as="targetPoint" />
          </mxGeometry>
        </mxCell>
        <mxCell id="SjHFO_GWArhu_ULlbVyG-49" value="&lt;div&gt;tracking order&lt;/div&gt;&lt;div&gt;&lt;br&gt;&lt;/div&gt;" style="rounded=1;whiteSpace=wrap;html=1;" vertex="1" parent="1">
          <mxGeometry x="245" y="905" width="120" height="46" as="geometry" />
        </mxCell>
        <mxCell id="SjHFO_GWArhu_ULlbVyG-50" value="" style="endArrow=none;html=1;rounded=0;exitX=0;exitY=0.5;exitDx=0;exitDy=0;entryX=1;entryY=0.5;entryDx=0;entryDy=0;" edge="1" parent="1" source="SjHFO_GWArhu_ULlbVyG-49" target="SjHFO_GWArhu_ULlbVyG-49">
          <mxGeometry width="50" height="50" relative="1" as="geometry">
            <mxPoint x="258" y="954" as="sourcePoint" />
            <mxPoint x="308" y="904" as="targetPoint" />
          </mxGeometry>
        </mxCell>
        <mxCell id="SjHFO_GWArhu_ULlbVyG-62" style="edgeStyle=orthogonalEdgeStyle;rounded=0;orthogonalLoop=1;jettySize=auto;html=1;entryX=0.5;entryY=0;entryDx=0;entryDy=0;" edge="1" parent="1" source="SjHFO_GWArhu_ULlbVyG-51" target="SjHFO_GWArhu_ULlbVyG-61">
          <mxGeometry relative="1" as="geometry" />
        </mxCell>
        <mxCell id="SjHFO_GWArhu_ULlbVyG-51" value="order completed&lt;div&gt;&lt;br&gt;&lt;/div&gt;" style="rounded=1;whiteSpace=wrap;html=1;" vertex="1" parent="1">
          <mxGeometry x="428" y="905" width="120" height="46" as="geometry" />
        </mxCell>
        <mxCell id="SjHFO_GWArhu_ULlbVyG-52" value="" style="endArrow=none;html=1;rounded=0;exitX=0;exitY=0.5;exitDx=0;exitDy=0;entryX=1;entryY=0.5;entryDx=0;entryDy=0;" edge="1" parent="1" source="SjHFO_GWArhu_ULlbVyG-51" target="SjHFO_GWArhu_ULlbVyG-51">
          <mxGeometry width="50" height="50" relative="1" as="geometry">
            <mxPoint x="431" y="1042" as="sourcePoint" />
            <mxPoint x="481" y="992" as="targetPoint" />
          </mxGeometry>
        </mxCell>
        <mxCell id="SjHFO_GWArhu_ULlbVyG-54" style="edgeStyle=orthogonalEdgeStyle;rounded=0;orthogonalLoop=1;jettySize=auto;html=1;entryX=0.623;entryY=0.174;entryDx=0;entryDy=0;entryPerimeter=0;" edge="1" parent="1" source="SjHFO_GWArhu_ULlbVyG-32" target="SjHFO_GWArhu_ULlbVyG-34">
          <mxGeometry relative="1" as="geometry" />
        </mxCell>
        <mxCell id="SjHFO_GWArhu_ULlbVyG-56" style="edgeStyle=orthogonalEdgeStyle;rounded=0;orthogonalLoop=1;jettySize=auto;html=1;exitX=1;exitY=0.5;exitDx=0;exitDy=0;entryX=0.84;entryY=0.034;entryDx=0;entryDy=0;entryPerimeter=0;" edge="1" parent="1" source="SjHFO_GWArhu_ULlbVyG-34" target="SjHFO_GWArhu_ULlbVyG-46">
          <mxGeometry relative="1" as="geometry" />
        </mxCell>
        <mxCell id="SjHFO_GWArhu_ULlbVyG-61" value="" style="ellipse;html=1;shape=endState;fillColor=strokeColor;" vertex="1" parent="1">
          <mxGeometry x="473" y="1013" width="30" height="30" as="geometry" />
        </mxCell>
        <mxCell id="SjHFO_GWArhu_ULlbVyG-63" value="" style="ellipse;fillColor=strokeColor;html=1;" vertex="1" parent="1">
          <mxGeometry x="227" y="517" width="30" height="30" as="geometry" />
        </mxCell>
        <mxCell id="SjHFO_GWArhu_ULlbVyG-64" style="edgeStyle=orthogonalEdgeStyle;rounded=0;orthogonalLoop=1;jettySize=auto;html=1;entryX=0.422;entryY=0.029;entryDx=0;entryDy=0;entryPerimeter=0;" edge="1" parent="1" source="SjHFO_GWArhu_ULlbVyG-63" target="SjHFO_GWArhu_ULlbVyG-30">
          <mxGeometry relative="1" as="geometry" />
        </mxCell>
        <mxCell id="SjHFO_GWArhu_ULlbVyG-65" value="" style="ellipse;fillColor=strokeColor;html=1;" vertex="1" parent="1">
          <mxGeometry x="227" y="48" width="30" height="30" as="geometry" />
        </mxCell>
        <mxCell id="SjHFO_GWArhu_ULlbVyG-66" value="product class" style="text;strokeColor=none;fillColor=none;html=1;fontSize=24;fontStyle=1;verticalAlign=middle;align=center;" vertex="1" parent="1">
          <mxGeometry x="52" y="13" width="100" height="40" as="geometry" />
        </mxCell>
        <mxCell id="SjHFO_GWArhu_ULlbVyG-67" value="customer class:" style="text;strokeColor=none;fillColor=none;html=1;fontSize=24;fontStyle=1;verticalAlign=middle;align=center;" vertex="1" parent="1">
          <mxGeometry x="81" y="450" width="100" height="40" as="geometry" />
        </mxCell>
      </root>
    </mxGraphModel>
  </diagram>
</mxfile>
